<svg width="11" height="11" viewBox="0 0 11 11" fill="none" xmlns="http://www.w3.org/2000/svg">
<path d="M5.0025 0C2.24336 0 0 2.24336 0 5.0025C0 7.76164 2.24336 10.005 5.0025 10.005C7.76164 10.005 10.005 7.76164 10.005 5.0025C10.005 2.24336 7.75663 0 5.0025 0ZM4.62694 2.69404C4.62694 2.48873 4.7972 2.31848 5.0025 2.31848C5.20781 2.31848 5.37807 2.48873 5.37807 2.69404V5.63345C5.37807 5.83876 5.20781 6.00901 5.0025 6.00901C4.7972 6.00901 4.62694 5.83876 4.62694 5.63345V2.69404ZM5.50325 7.17576C5.50325 7.45118 5.27792 7.67651 5.0025 7.67651C4.72709 7.67651 4.50175 7.45118 4.50175 7.17576V7.05058C4.50175 6.77516 4.72709 6.54982 5.0025 6.54982C5.27792 6.54982 5.50325 6.77516 5.50325 7.05058V7.17576Z" fill="#3E3E3E"/>
</svg>
